PathFileType	4	(X/Y/Z)	c:/Users/goper/Files/vsCode/490R/osim_files/C06/C06_Static_02.trc
DataRate	CameraRate	NumFrames	NumMarkers	Units                	OrigDataRate	OrigDataStartFrame	OrigNumFrames
250.00	250.00	5	36	mm	250.0	685	1368
                Frame#	Time	LPSIS			LASIS			LTH1			LTH2			LTH3			LTH4			LLFE			LMFE			LSH1			LSH2			LSH3			LSH4			LLMAL			LMMAL			LCAL			LMTP5			LTOE			LMTP1			RPSIS			RASIS			RTH1			RTH2			RTH3			RTH4			RLFE			RMFE			RSH1			RSH2			RSH3			RSH4			RLMAL			RMMAL			RCAL			RMTP1			RTOE			RMTP5		
		X1	Y1	Z1	X2	Y2	Z2	X3	Y3	Z3	X4	Y4	Z4	X5	Y5	Z5	X6	Y6	Z6	X7	Y7	Z7	X8	Y8	Z8	X9	Y9	Z9	X10	Y10	Z10	X11	Y11	Z11	X12	Y12	Z12	X13	Y13	Z13	X14	Y14	Z14	X15	Y15	Z15	X16	Y16	Z16	X17	Y17	Z17	X18	Y18	Z18	X19	Y19	Z19	X20	Y20	Z20	X21	Y21	Z21	X22	Y22	Z22	X23	Y23	Z23	X24	Y24	Z24	X25	Y25	Z25	X26	Y26	Z26	X27	Y27	Z27	X28	Y28	Z28	X29	Y29	Z29	X30	Y30	Z30	X31	Y31	Z31	X32	Y32	Z32	X33	Y33	Z33	X34	Y34	Z34	X35	Y35	Z35	X36	Y36	Z36

685	2.73600	-374.25549	1013.55347	462.41681	-204.53360	977.97034	351.82297	-299.04346	793.76654	267.99805	-293.84238	731.57758	259.08429	-225.08122	791.08527	281.12543	-228.96848	730.72363	270.80457	-301.61542	480.67294	268.32135	-309.30219	444.85266	378.67227	-373.61252	376.04742	234.93274	-366.20673	332.99652	230.44345	-309.18494	382.09818	233.02834	-312.06912	338.07254	227.98306	-330.72446	92.07284	237.49242	-322.31546	103.38708	315.10876	-392.41113	65.57089	282.45517	-219.86499	31.96520	202.44179	-166.08405	57.04424	268.77740	-192.22314	37.90506	314.82660	-371.57339	1011.35846	534.05017	-184.76236	972.59375	591.60962	-278.02502	789.53448	689.55066	-270.57208	726.79980	691.66968	-205.59647	790.61664	669.52631	-208.46161	727.96307	675.68488	-290.57861	463.10379	678.49115	-286.40625	460.34201	568.16675	-348.61920	392.70428	709.27423	-346.39948	344.85495	716.03088	-288.41406	385.48416	699.80548	-294.90585	339.84155	706.87708	-323.52921	90.49922	696.10950	-315.73166	105.75845	618.17834	-388.19345	62.30610	656.06061	-184.74715	35.88571	610.64227	-163.72568	54.03739	655.85144	-205.60788	28.17237	723.98706
686	2.74000	-374.28058	1013.58276	462.39554	-204.53934	977.94958	351.82318	-298.98993	793.75653	267.97174	-293.83405	731.55725	259.06320	-225.07277	791.08917	281.12460	-228.94785	730.72974	270.78589	-301.60913	480.66946	268.30518	-309.29892	444.86572	378.67575	-373.62091	376.07986	234.92357	-366.22934	333.04935	230.42908	-309.16470	382.10818	233.01004	-312.08386	338.04065	227.94380	-330.70578	92.08394	237.48067	-322.27954	103.37966	315.09485	-392.39163	65.59249	282.46121	-219.84706	31.96261	202.43944	-166.10495	57.02792	268.77817	-192.19667	37.90754	314.82108	-371.58093	1011.36896	534.03204	-184.74370	972.58832	591.59973	-277.98929	789.54529	689.53137	-270.53458	726.80518	691.67822	-205.60361	790.60468	669.51343	-208.42928	727.97009	675.64349	-290.55966	463.09457	678.48444	-286.39694	460.31830	568.15930	-348.59308	392.69553	709.27667	-346.34702	344.84256	716.01678	-288.40961	385.49072	699.79413	-294.90558	339.84183	706.88037	-323.50790	90.49678	696.09125	-315.71646	105.75961	618.16656	-388.21277	62.30555	656.05798	-184.73959	35.88356	610.63885	-163.73732	54.03840	655.83209	-205.60297	28.15059	723.97687
687	2.74400	-374.29007	1013.60486	462.37329	-204.52428	977.94287	351.81543	-298.94687	793.76196	267.95340	-293.81262	731.56537	259.06046	-225.04890	791.08289	281.12482	-228.95897	730.72992	270.79398	-301.59833	480.65671	268.30078	-309.30707	444.87671	378.65814	-373.59955	376.09363	234.92273	-366.22260	333.01147	230.42690	-309.18250	382.10553	233.00934	-312.06894	338.08939	227.94177	-330.69485	92.06704	237.47771	-322.27359	103.39200	315.10257	-392.37161	65.58157	282.46933	-219.87042	31.95919	202.44075	-166.51978	56.66925	269.07431	-192.20111	37.90281	314.83301	-371.61340	1011.40881	534.01495	-184.72932	972.58838	591.58344	-277.97067	789.53461	689.51318	-270.50903	726.81604	691.65503	-205.57414	790.59320	669.50903	-208.42021	727.94006	675.63397	-290.55371	463.09778	678.47937	-286.16589	460.31866	567.81653	-348.77432	392.67728	709.33307	-346.35693	344.83655	716.01935	-288.39316	385.49695	699.78497	-294.92566	339.83167	706.86792	-323.48892	90.50518	696.09772	-315.69913	105.73794	618.15881	-388.18518	62.29814	656.05725	-184.52028	35.98745	610.48407	-163.73094	54.04070	655.83105	-205.60486	28.15168	723.97198
688	2.74800	-374.28516	1013.60834	462.35425	-204.49054	977.95337	351.80835	-298.91107	793.77344	267.92053	-293.78198	731.56488	259.04184	-225.07365	791.06555	281.12357	-228.94899	730.71362	270.79990	-301.60114	480.66299	268.31110	-309.31912	444.87326	378.63474	-373.60229	376.09882	234.89771	-366.21994	332.99319	230.41290	-309.18057	382.09381	233.01555	-312.05872	338.06393	227.94467	-330.71426	92.06448	237.48386	-322.24915	103.41228	315.07907	-392.33951	65.58935	282.44626	-219.85500	31.95240	202.45320	-166.74580	56.20481	269.34290	-192.17268	37.90825	314.81506	-371.61279	1011.41913	533.99860	-184.72023	972.59119	591.57654	-277.96289	789.54462	689.50854	-270.51212	726.84479	691.65210	-205.57610	790.59729	669.47375	-208.38591	727.96332	675.63959	-290.52362	463.10388	678.45917	-286.16818	460.30768	567.81628	-348.57178	392.71140	709.23035	-346.30948	344.83896	715.98761	-288.38953	385.48120	699.75970	-294.88235	339.84409	706.84235	-323.47513	90.51274	696.08801	-315.69806	105.73494	618.17267	-388.23074	62.36266	656.05688	-184.53365	35.97102	610.47864	-163.74957	54.02505	655.84991	-205.59142	28.15777	723.96649
689	2.75200	-374.32071	1013.62256	462.34894	-204.49483	977.97876	351.78632	-298.90610	793.79224	267.92300	-293.76620	731.58881	259.01480	-225.02499	791.06415	281.11835	-228.92104	730.70081	270.80225	-301.61041	480.67108	268.30701	-309.29337	444.87192	378.63113	-373.63266	376.11890	234.89839	-366.25876	333.04300	230.41565	-309.16229	382.08423	233.01378	-312.08389	338.07364	227.93454	-330.71658	92.06574	237.48657	-322.24149	103.43642	315.06696	-392.37576	65.60065	282.44138	-219.88000	31.93921	202.45782	-166.90359	56.63853	269.51187	-192.16750	37.93110	314.81204	-371.58435	1011.39978	533.96875	-184.68590	972.61688	591.55847	-277.92770	789.56067	689.48859	-270.47134	726.84973	691.63318	-205.55386	790.60315	669.45789	-208.37135	727.97516	675.60596	-290.52490	463.10413	678.43732	-286.16241	460.29745	567.82373	-348.56311	392.71606	709.22906	-346.31812	344.87265	715.97888	-288.37924	385.50510	699.74030	-294.86633	339.87903	706.81738	-323.46445	90.52719	696.07495	-315.70737	105.73508	618.15833	-388.18878	62.40366	656.04968	-184.55292	35.97892	610.47748	-163.75807	54.02120	655.84778	-205.58774	28.18039	723.95593
